# xmcd
#
# Track frame offsets:
# 150
# 21930
# 41267
# 69050
# 87121
# 130424
#
# Disc length: 2737 seconds
#
# Revision: 2
# Processed by: cddbd v1.4PL0 Copyright (c) Steve Scherf et al.
# Submitted via: Axialis_AX_CDPlayer 2.6
#
DISCID=400aaf06
DTITLE=Stevie Ray Vaughan - Final Performance At Alpine Valley [CD2]
DYEAR=1900
DGENRE=
TTITLE0=Superstition
TTITLE1=Couldn't Stand The Weather
TTITLE2=Goin Down
TTITLE3=Crossfire
TTITLE4=Voodoo Chile
TTITLE5=Sweet Home Chicago
EXTD=
EXTT0=
EXTT1=
EXTT2=
EXTT3=
EXTT4=
EXTT5=
PLAYORDER=
